<svg width="500" height="500" viewBox="0 0 500 500" fill="none" xmlns="http://www.w3.org/2000/svg">
  <g opacity="0.9" stroke="#D4A017" stroke-width="3" fill="none">
    <!-- Center -->
    <circle cx="250" cy="250" r="18"></circle>

    <!-- Inner Petals -->
    <path d="M250 160 C270 195 270 225 250 250 C230 225 230 195 250 160Z"></path>
    <path d="M340 250 C305 270 275 270 250 250 C275 230 305 230 340 250Z"></path>
    <path d="M250 340 C270 305 270 275 250 250 C230 275 230 305 250 340Z"></path>
    <path d="M160 250 C195 270 225 270 250 250 C225 230 195 230 160 250Z"></path>

    <!-- Diagonal Petals -->
    <path d="M195 195 C220 210 235 225 250 250 C225 235 210 220 195 195Z"></path>
    <path d="M305 195 C290 220 275 235 250 250 C265 225 280 210 305 195Z"></path>
    <path d="M195 305 C220 290 235 275 250 250 C225 265 210 280 195 305Z"></path>
    <path d="M305 305 C290 280 275 265 250 250 C265 275 280 290 305 305Z"></path>

    <!-- Outer Petals -->
    <path d="M250 90 C290 150 285 210 250 250 C215 210 210 150 250 90Z"></path>
    <path d="M410 250 C350 290 290 285 250 250 C290 215 350 210 410 250Z"></path>
    <path d="M250 410 C290 350 285 290 250 250 C215 290 210 350 250 410Z"></path>
    <path d="M90 250 C150 290 210 285 250 250 C210 215 150 210 90 250Z"></path>
  </g>
</svg>